<?xml version="1.0"?><svg width="550.4" height="509.7375" xmlns="http://www.w3.org/2000/svg">
 <title>Blue Texas</title>
 <metadata id="metadata12295">image/svg+xml</metadata>

 <g>
  <title>Layer 1</title>
  <g transform="matrix(1.25, 0, 0, -1.25, 0, 509.737)" id="g12297">
   <g transform="scale(0.24,0.24)" id="g12299">
    <path fill="#00007f" fill-rule="nonzero" id="path12301" d="m925.39801,1698.469971l2.125,-308.459961c17.390991,-8.920044 35.210999,-19.099976 53.882996,-29.280029c0.25,0.339966 0.52002,0.650024 0.781982,0.949951l63.692017,-16.859985c2.530029,-4.140015 5.280029,-7.969971 8.930054,-10.819946c26.72998,0.849976 45.399902,-2.969971 72.130005,-7.209961c2.539917,-5.950073 6.789917,-11.040039 9.329956,-16.980103c13.709961,20.170044 31.160034,17.130005 51.160034,12.619995l165.699951,-35.329956c0.630005,1.75 1.060059,3.780029 1.22998,6.170044c18.25,1.27002 10.609985,-30.97998 34.369995,-20.369995c2.959961,0.919922 5.27002,4.179932 7.599976,7.140015l137.650024,8.659912c2.580078,0.599976 5.150024,1.23999 7.690063,1.910034l127.579956,-19.069946l92.530029,-36.370117c0.25,-0.009888 0.5,-0.019897 0.76001,-0.029907l2.119995,-256.281067c36.919922,-36.065979 36.5,-92.070007 70.01001,-127.289001c-0.850098,-65.764954 -13.580078,-126.867004 -20.369995,-190.510986l-2.190063,-2.950012l-16.109985,-43.850952c0.130005,-0.602051 0.160034,-1.262024 0.060059,-1.992004c-43.27002,-18.671997 -88.680054,-40.309021 -133.230103,-56.007996c6.369995,12.725952 21.640015,18.245972 31.400024,28.425964c-11.880005,2.125 -20.369995,-3.39502 -31.400024,-2.968994c-0.849976,12.304993 5.090088,25.882996 3.820068,38.609009c-12.300049,-5.510986 -22.48999,-27.573975 -38.609985,-13.151978c8.909912,-19.516052 18.23999,-36.488037 15.27002,-60.25l-35.630005,-18.242004c-0.440063,-5.942017 -3.400024,-15.278015 -2.980103,-18.246033l2.980103,2.968018c-9.340088,-17.394012 -28.860107,-36.062012 -48.800049,-46.671997c-36.589966,-21.406006 -76.030029,-42.453003 -110.130005,-63.800018l8.47998,27.429016c1.859985,5.878998 0.660034,13.621002 0.660034,18.972992c-6.780029,-8.906006 -23.76001,-11.878998 -21.209961,-20.363007c-10.180054,5.937012 -30.550049,2.968994 -33.52002,18.242004c-8.910034,-0.847992 -2.130005,-8.05899 -4.23999,-13.152008c8.48999,-11.878998 28,-12.304993 30.549927,-27.582001l-37.77002,-18.242981c-3.819946,4.667999 -7.630005,13.574982 -15.269897,16.125c-5.52002,-14.003998 9.329956,-26.730011 1.269897,-42.855011c-1.429932,-0.589996 -2.889893,-1.222992 -4.369995,-1.859009l-62.349976,-81.488983c-5.22998,-20.171997 -16.829956,-39.172012 -24.929932,-59.218002c-11.460083,16.54599 -28.420044,-13.153 -37.76001,8.487991c-4.25,-24.610001 25.030029,-8.909988 37.76001,-13.577988c8.069946,-19.520004 -0.420044,-37.340012 -13.150024,-52.614014c11.880005,-43.276993 25.880005,-84.437096 34.369995,-129.409794l15.27002,-2.125c7.209961,-7.210899 5.939941,-16.97261 6.369995,-28.425759c-22.070068,-2.12107 -41.590088,-0.85153 -64.5,-1.27341c-62.790039,44.972698 -154.02002,25.0313 -208.75,72.554703c-26.310059,28.332298 -22.51001,74.425293 -49.720032,100.340302l-87.858032,159.784988c-10.187012,16.428986 -20.098022,33.214996 -32.143982,47.492004c-23.762024,49.218994 -39.882996,103.105011 -71.282043,147.656006c-32.25,22.487976 -69.585999,42.007996 -85.710999,80.192017c-32.245972,4.245972 -65.764954,12.303955 -96.737976,13.156006c-39.887024,23.757996 -36.914001,-25.882996 -76.375,-13.156006c-26.72998,-15.27002 -21.215027,-56.85199 -30.551025,-85.282043l-29.27298,-39.034973c-19.945007,-1.695007 -36.914001,10.609985 -55.160004,13.574005c-35.218994,43.707001 -100.562988,40.735016 -138.324982,84.438019l-58.125,158.690979c-16.972,25.453003 -51.343002,30.120972 -76.375,45.820984l-76.374611,88.679016c-8.921799,3.925964 -22.0429,0.948975 -30.535099,4.948975l-52.49999,54.442017c-7.41797,10.52301 -10.28906,23.109009 -8.61328,37.351013c165.050995,3.817017 330.531006,1.695984 496.007996,3.817017c2.542999,241.424988 -5.093994,485.825012 8.058014,723.004944c140.445953,0 280.886993,1.700073 421.332001,0l0,0"/>
    <path fill="#00007f" fill-rule="nonzero" id="path12303" d="m661.198975,728.926025l0,140.625l-67.445007,0l0,37.5l185.414001,0.004028l0,-37.5l-67.445007,-0.004028l0,-140.625l-50.523987,0"/>
    <path fill="#00007f" fill-rule="nonzero" id="path12305" d="m803.151978,728.926025l-0.003967,178.128967l151.648987,0l0,-38.023987l-102.429993,0l0,-30.72998l97.47699,0.004028l0,-36.719055l-97.47699,-0.003967l0,-34.375l105.210999,0.003967l0,-38.280945l-154.426025,-0.004028"/>
    <path fill="#00007f" fill-rule="nonzero" id="path12307" d="m959.171997,728.929993l81.458008,93.715027l-74.645996,84.409973l63.05603,0l46.26001,-56.637024l45.779907,56.637024l57.619995,0l-75.97998,-84.409973l80.930054,-93.715027l-64.73999,0l-50.25,63.039001l-49.980042,-63.039001l-59.507996,0"/>
    <path fill="#00007f" fill-rule="nonzero" id="path12309" d="m1170.23999,728.929993l92.689941,178.125l60.300049,0l87.380005,-178.125l-57.410034,0l-15.829956,36.198975l-97.040039,0l-16.559937,-36.198975l-53.530029,0zm86.77002,70.573975l64.049927,0l-30.449951,68.44104l-33.599976,-68.44104"/>
    <path fill="#00007f" fill-rule="nonzero" id="path12311" d="m1414.890015,788.304993l50.5,0l0,-1.812988c0,-8.796997 2.880005,-15.296997 8.660034,-19.496033c5.77002,-4.198975 14.719971,-6.292969 26.839966,-6.292969c10.75,0 18.77002,1.546997 24.069946,4.651978c5.290039,3.106018 7.940063,7.762024 7.940063,13.968994c0,9.031006 -12.27002,15.765991 -36.810059,20.199036c-4.97998,0.886963 -8.789917,1.570984 -11.429932,2.054993c-24.330078,4.667969 -41.420044,10.945007 -51.280029,18.835999c-9.869995,7.886963 -14.809937,18.835999 -14.809937,32.839966c0,18.19104 7.139893,32.098022 21.429932,41.715027c14.280029,9.620972 34.900024,14.432983 61.859985,14.432983c25.75,0 44.820068,-4.307983 57.220093,-12.929016c12.389893,-8.617981 19.109985,-22.191956 20.159912,-40.718994l-48.030029,0l0,0.484009c0,6.528015 -2.579956,11.468994 -7.759888,14.812988c-5.170044,3.344055 -12.850098,5.015015 -23.040039,5.015015c-9.859985,0 -17.459961,-1.448975 -22.790039,-4.346985c-5.339966,-2.898987 -8,-7.004028 -8,-12.320984c0,-8.453003 11.859985,-14.89801 35.609985,-19.328003c4.170044,-0.804016 7.420044,-1.453003 9.73999,-1.933044l2.060059,-0.359985c26.25,-5.073975 43.609985,-11.276978 52.069946,-18.601013c4.910034,-4.269958 8.650024,-9.484985 11.23999,-15.644958c2.570068,-6.160034 3.859985,-12.906006 3.859985,-20.230042c0,-18.441956 -7.419922,-32.632996 -22.259888,-42.578003c-14.830078,-9.945984 -36.050049,-14.917969 -63.619995,-14.917969c-27.840088,0 -48.700073,4.875 -62.590088,14.625c-13.890015,9.75 -20.839966,24.45697 -20.839966,44.125l0,3.75"/>
   </g>
  </g>
 </g>
</svg>